HIERARCHY
ROOT Hips
{
	OFFSET 0.000000 97.167313 0.000000
	CHANNELS 6 Xposition Yposition Zposition Xrotation Yrotation Zrotation
	JOINT Spine
	{
		OFFSET 0.000000 13.784798 0.064400
		CHANNELS 3 Xrotation Yrotation Zrotation
		JOINT Spine1
		{
			OFFSET 0.000000 12.037903 0.404700
			CHANNELS 3 Xrotation Yrotation Zrotation
			JOINT Spine2
			{
				OFFSET 0.000000 17.795601 0.420200
				CHANNELS 3 Xrotation Yrotation Zrotation
				JOINT Neck
				{
					OFFSET 0.000000 39.131302 11.954600
					CHANNELS 3 Xrotation Yrotation Zrotation
					JOINT Head
					{
						OFFSET 0.000000 14.456192 15.627699
						CHANNELS 3 Xrotation Yrotation Zrotation
						JOINT HeadTop_End
						{
							OFFSET 0.000000 15.703506 7.603401
							CHANNELS 3 Xrotation Yrotation Zrotation
							End Site
							{
								OFFSET 0.000000 17.447403 0.000000
							}
						}
					}
				}
				JOINT LeftShoulder
				{
					OFFSET 17.399500 24.608795 1.168800
					CHANNELS 3 Xrotation Yrotation Zrotation
					JOINT LeftArm
					{
						OFFSET 18.980635 5.765305 1.818600
						CHANNELS 3 Xrotation Yrotation Zrotation
						JOINT LeftForeArm
						{
							OFFSET 49.290169 0.000000 0.000000
							CHANNELS 3 Xrotation Yrotation Zrotation
							JOINT LeftHand
							{
								OFFSET 31.562012 0.000000 0.000000
								CHANNELS 3 Xrotation Yrotation Zrotation
								JOINT LeftHandThumb1
								{
									OFFSET 6.133995 -4.388519 7.076070
									CHANNELS 3 Xrotation Yrotation Zrotation
									JOINT LeftHandThumb2
									{
										OFFSET 6.037666 -3.485840 3.485847
										CHANNELS 3 Xrotation Yrotation Zrotation
										JOINT LeftHandThumb3
										{
											OFFSET 6.496506 -3.750763 3.750761
											CHANNELS 3 Xrotation Yrotation Zrotation
											JOINT LeftHandThumb4
											{
												OFFSET 5.616882 -3.242905 3.242910
												CHANNELS 3 Xrotation Yrotation Zrotation
												End Site
												{
													OFFSET -1.254608 7.132141 0.375429
												}
											}
										}
									}
								}
								JOINT LeftHandPinky1
								{
									OFFSET 18.920792 -0.453171 -11.426712
									CHANNELS 3 Xrotation Yrotation Zrotation
									JOINT LeftHandPinky2
									{
										OFFSET 4.919586 0.000000 0.000000
										CHANNELS 3 Xrotation Yrotation Zrotation
										JOINT LeftHandPinky3
										{
											OFFSET 5.233047 0.000000 0.000000
											CHANNELS 3 Xrotation Yrotation Zrotation
											JOINT LeftHandPinky4
											{
												OFFSET 5.571716 0.000000 0.000000
												CHANNELS 3 Xrotation Yrotation Zrotation
												End Site
												{
													OFFSET -3.459808 4.342407 -0.466164
												}
											}
										}
									}
								}
								JOINT LeftHandRing1
								{
									OFFSET 22.726120 -0.094986 -6.500475
									CHANNELS 3 Xrotation Yrotation Zrotation
									JOINT LeftHandRing2
									{
										OFFSET 6.408615 0.000000 0.000000
										CHANNELS 3 Xrotation Yrotation Zrotation
										JOINT LeftHandRing3
										{
											OFFSET 6.150223 0.000000 0.000000
											CHANNELS 3 Xrotation Yrotation Zrotation
											JOINT LeftHandRing4
											{
												OFFSET 6.145386 0.000000 0.000000
												CHANNELS 3 Xrotation Yrotation Zrotation
												End Site
												{
													OFFSET -3.671402 4.923981 -0.202372
												}
											}
										}
									}
								}
								JOINT LeftHandMiddle1
								{
									OFFSET 23.373947 0.000000 0.000001
									CHANNELS 3 Xrotation Yrotation Zrotation
									JOINT LeftHandMiddle2
									{
										OFFSET 6.996567 0.000000 0.000000
										CHANNELS 3 Xrotation Yrotation Zrotation
										JOINT LeftHandMiddle3
										{
											OFFSET 7.015945 0.000000 0.000000
											CHANNELS 3 Xrotation Yrotation Zrotation
											JOINT LeftHandMiddle4
											{
												OFFSET 7.721573 0.000000 0.000000
												CHANNELS 3 Xrotation Yrotation Zrotation
												End Site
												{
													OFFSET -4.651108 6.158463 0.251582
												}
											}
										}
									}
								}
								JOINT LeftHandIndex1
								{
									OFFSET 21.310577 -0.490082 6.209344
									CHANNELS 3 Xrotation Yrotation Zrotation
									JOINT LeftHandIndex2
									{
										OFFSET 7.536453 0.000000 0.000000
										CHANNELS 3 Xrotation Yrotation Zrotation
										JOINT LeftHandIndex3
										{
											OFFSET 7.512344 0.000000 0.000000
											CHANNELS 3 Xrotation Yrotation Zrotation
											JOINT LeftHandIndex4
											{
												OFFSET 10.212402 0.000000 0.000001
												CHANNELS 3 Xrotation Yrotation Zrotation
												End Site
												{
													OFFSET -5.180801 8.690506 1.388433
												}
											}
										}
									}
								}
							}
						}
					}
				}
				JOINT RightShoulder
				{
					OFFSET -17.399500 24.608795 1.168800
					CHANNELS 3 Xrotation Yrotation Zrotation
					JOINT RightArm
					{
						OFFSET -18.980635 5.765305 1.818600
						CHANNELS 3 Xrotation Yrotation Zrotation
						JOINT RightForeArm
						{
							OFFSET -49.290169 0.000000 0.000000
							CHANNELS 3 Xrotation Yrotation Zrotation
							JOINT RightHand
							{
								OFFSET -31.562012 0.000000 0.000000
								CHANNELS 3 Xrotation Yrotation Zrotation
								JOINT RightHandThumb1
								{
									OFFSET -6.133995 -4.388519 7.076070
									CHANNELS 3 Xrotation Yrotation Zrotation
									JOINT RightHandThumb2
									{
										OFFSET -6.037666 -3.485840 3.485847
										CHANNELS 3 Xrotation Yrotation Zrotation
										JOINT RightHandThumb3
										{
											OFFSET -6.496506 -3.750763 3.750761
											CHANNELS 3 Xrotation Yrotation Zrotation
											JOINT RightHandThumb4
											{
												OFFSET -5.616882 -3.242905 3.242910
												CHANNELS 3 Xrotation Yrotation Zrotation
												End Site
												{
													OFFSET 1.254608 7.132141 0.375429
												}
											}
										}
									}
								}
								JOINT RightHandIndex1
								{
									OFFSET -21.310577 -0.490082 6.209344
									CHANNELS 3 Xrotation Yrotation Zrotation
									JOINT RightHandIndex2
									{
										OFFSET -7.536453 0.000000 0.000000
										CHANNELS 3 Xrotation Yrotation Zrotation
										JOINT RightHandIndex3
										{
											OFFSET -7.512344 0.000000 0.000000
											CHANNELS 3 Xrotation Yrotation Zrotation
											JOINT RightHandIndex4
											{
												OFFSET -10.212402 0.000000 0.000001
												CHANNELS 3 Xrotation Yrotation Zrotation
												End Site
												{
													OFFSET 5.180801 8.690506 1.388433
												}
											}
										}
									}
								}
								JOINT RightHandMiddle1
								{
									OFFSET -23.373947 0.000000 0.000001
									CHANNELS 3 Xrotation Yrotation Zrotation
									JOINT RightHandMiddle2
									{
										OFFSET -6.996567 0.000000 0.000000
										CHANNELS 3 Xrotation Yrotation Zrotation
										JOINT RightHandMiddle3
										{
											OFFSET -7.015945 0.000000 0.000000
											CHANNELS 3 Xrotation Yrotation Zrotation
											JOINT RightHandMiddle4
											{
												OFFSET -7.721573 0.000000 0.000000
												CHANNELS 3 Xrotation Yrotation Zrotation
												End Site
												{
													OFFSET 4.651108 6.158463 0.251582
												}
											}
										}
									}
								}
								JOINT RightHandRing1
								{
									OFFSET -22.726120 -0.094986 -6.500475
									CHANNELS 3 Xrotation Yrotation Zrotation
									JOINT RightHandRing2
									{
										OFFSET -6.408615 0.000000 0.000000
										CHANNELS 3 Xrotation Yrotation Zrotation
										JOINT RightHandRing3
										{
											OFFSET -6.150223 0.000000 0.000000
											CHANNELS 3 Xrotation Yrotation Zrotation
											JOINT RightHandRing4
											{
												OFFSET -6.145386 0.000000 0.000000
												CHANNELS 3 Xrotation Yrotation Zrotation
												End Site
												{
													OFFSET 3.671402 4.923981 -0.202372
												}
											}
										}
									}
								}
								JOINT RightHandPinky1
								{
									OFFSET -18.920792 -0.453171 -11.426712
									CHANNELS 3 Xrotation Yrotation Zrotation
									JOINT RightHandPinky2
									{
										OFFSET -4.919586 0.000000 0.000000
										CHANNELS 3 Xrotation Yrotation Zrotation
										JOINT RightHandPinky3
										{
											OFFSET -5.233047 0.000000 0.000000
											CHANNELS 3 Xrotation Yrotation Zrotation
											JOINT RightHandPinky4
											{
												OFFSET -5.571716 0.000000 0.000000
												CHANNELS 3 Xrotation Yrotation Zrotation
												End Site
												{
													OFFSET 3.459808 4.342407 -0.466164
												}
											}
										}
									}
								}
							}
						}
					}
				}
			}
		}
	}
	JOINT LeftUpLeg
	{
		OFFSET 19.899099 -7.885101 -3.429500
		CHANNELS 3 Xrotation Yrotation Zrotation
		JOINT LeftLeg
		{
			OFFSET 1.745560 -36.997807 10.304700
			CHANNELS 3 Xrotation Yrotation Zrotation
			JOINT LeftFoot
			{
				OFFSET -1.745558 -29.803308 -13.615400
				CHANNELS 3 Xrotation Yrotation Zrotation
				JOINT LeftToeBase
				{
					OFFSET 1.181900 -18.539904 15.226099
					CHANNELS 3 Xrotation Yrotation Zrotation
					JOINT LeftToe_End
					{
						OFFSET -0.863701 1.402801 16.534700
						CHANNELS 3 Xrotation Yrotation Zrotation
						End Site
						{
							OFFSET 0.000000 16.616566 0.000000
						}
					}
				}
			}
		}
	}
	JOINT RightUpLeg
	{
		OFFSET -19.899099 -7.885101 -3.429500
		CHANNELS 3 Xrotation Yrotation Zrotation
		JOINT RightLeg
		{
			OFFSET -1.745560 -36.997807 10.304700
			CHANNELS 3 Xrotation Yrotation Zrotation
			JOINT RightFoot
			{
				OFFSET 1.745558 -29.803308 -13.615400
				CHANNELS 3 Xrotation Yrotation Zrotation
				JOINT RightToeBase
				{
					OFFSET -1.181900 -18.539904 15.226099
					CHANNELS 3 Xrotation Yrotation Zrotation
					JOINT RightToe_End
					{
						OFFSET 0.863701 1.402801 16.534700
						CHANNELS 3 Xrotation Yrotation Zrotation
						End Site
						{
							OFFSET 0.000000 16.616566 0.000000
						}
					}
				}
			}
		}
	}
}
MOTION
Frames: 5
Frame Time: 0.033333
-0.359858 119.284637 15.558846 -7.863754 -0.792778 2.201493 17.132034 -1.354621 -1.133366 13.258382 -0.840585 -0.365273 24.610575 -0.830226 -0.153526 -10.015755 -0.087520 -1.029088 -23.194506 2.893804 0.623161 -0.000001 -0.000000 -0.000000 3.061177 -18.092159 0.637311 -61.100154 -58.733500 -50.090459 0.000023 -28.745391 0.000026 -66.323582 -37.746904 15.013666 -32.562558 -12.315456 4.683263 9.202996 37.234124 3.176000 -4.057701 33.022452 21.120067 0.000001 -0.000000 -0.000002 4.725964 8.077081 -78.214921 3.334992 5.284146 -64.492518 0.638375 2.661249 -26.973486 -0.000000 0.000001 -0.000004 4.725964 8.077091 -78.214928 3.334993 5.284140 -64.492497 0.638367 2.661255 -26.973479 -0.000001 0.000001 0.000005 3.345001 7.607214 -63.874508 1.144982 3.480644 -36.408340 1.876397 4.297283 -47.160988 -0.000000 -0.000000 0.000004 1.866721 6.580382 -46.148737 2.282824 4.640076 -52.373477 0.444255 2.239735 -22.436282 -0.000000 0.000002 -0.000003 2.880538 21.488366 2.813042 -75.924492 39.849502 66.899265 0.000062 48.551532 -0.000053 -20.198917 8.477961 -25.693584 9.463569 34.231870 -5.591955 -14.104417 -41.000447 -28.365822 -0.427474 -53.201662 -26.465245 -0.000000 -0.000002 -0.000000 2.920669 -6.577086 67.416569 4.777101 -4.655632 91.477065 1.832734 -3.704440 52.634824 -0.000002 -0.000003 -0.000001 2.995949 -6.607417 68.415655 5.116780 -4.634477 95.669763 1.281293 -3.210082 43.509770 0.000001 0.000000 -0.000001 4.253098 -7.031903 71.531738 4.700778 -4.656957 90.536903 1.504560 -3.429597 47.363940 -0.000000 0.000001 -0.000005 6.205067 -13.443787 65.556675 2.617997 -4.187883 64.007964 1.817444 -3.692747 52.397998 0.000001 -0.000002 0.000005 -73.307314 -0.725960 15.519534 105.397592 -1.168697 -7.036924 -18.616341 -0.006579 1.264681 0.751073 -0.000006 0.000000 0.000000 0.000001 -0.000000 -74.755089 4.743076 -15.654348 107.923662 -1.913566 3.314927 -23.534677 -2.679992 0.773305 1.048675 -0.000002 0.000000 0.000000 -0.000001 0.000000 
-0.223331 119.960388 15.455437 -9.671686 -0.583939 2.200990 17.496107 -1.478359 -0.571031 13.248818 -0.861197 -0.215109 24.367446 -0.817612 -0.000622 -10.080857 -0.311339 -1.109423 -22.210742 0.584676 -0.447960 -0.000000 -0.000000 0.000000 3.035682 -19.189049 0.123242 -56.935036 -58.412918 -48.189758 0.000005 -25.249799 -0.000002 -66.140601 -33.586772 10.898092 -28.816534 -11.562531 -0.405301 2.239480 28.451674 7.560450 -10.993995 -13.120148 14.178953 -0.000003 0.000002 0.000001 12.992909 17.795643 -44.650337 1.010746 3.291214 -34.135919 0.305394 1.868574 -18.563638 -0.000001 0.000000 -0.000002 6.187210 13.371373 -33.124891 1.203150 3.558031 -37.356050 0.633924 2.652488 -26.877331 -0.000002 -0.000001 0.000005 2.677639 8.326788 -30.800451 0.352604 2.003570 -19.960685 0.096809 1.061608 -10.417972 -0.000000 -0.000000 0.000004 2.024593 1.720885 -16.258604 0.908393 3.135177 -32.310043 0.067999 0.891068 -8.729799 -0.000000 0.000003 0.000001 2.576975 23.120192 4.146556 -75.306906 39.690892 66.500300 -0.000019 44.438273 0.000027 -18.755206 10.100850 -24.256257 9.463582 34.231873 -5.591977 -14.104445 -41.000447 -28.365842 -0.427489 -53.201675 -26.465255 0.000002 0.000000 -0.000003 2.920677 -6.577088 67.416563 4.777094 -4.655608 91.477079 1.832725 -3.704414 52.634852 0.000001 -0.000002 0.000001 2.995939 -6.607439 68.415642 5.116784 -4.634484 95.669743 1.281293 -3.210085 43.509774 0.000002 0.000000 -0.000004 4.253100 -7.031879 71.531724 4.700774 -4.656961 90.536890 1.504577 -3.429603 47.363933 -0.000000 0.000000 -0.000005 6.205063 -13.443780 65.556647 2.617997 -4.187878 64.007970 1.817448 -3.692757 52.397987 0.000001 0.000000 0.000000 -70.254465 0.129302 14.326436 104.848438 0.153616 -6.652378 -19.793881 -0.103195 1.826458 0.862936 0.000007 -0.000000 0.000000 0.000001 -0.000000 -70.724970 2.797556 -14.130243 107.427947 -3.835348 2.084893 -26.423574 -5.702772 -1.594261 -0.255149 -0.000002 0.000000 0.000000 -0.000002 -0.000001 
-0.204629 120.477844 15.501926 -11.232816 -0.395431 2.233064 17.219865 -1.751222 0.107022 13.373083 -0.920561 0.227244 24.248953 -0.793253 0.456657 -10.401080 -0.346846 -1.331727 -23.182815 0.233799 -2.697865 0.000001 0.000000 0.000000 3.094744 -19.049845 0.353547 -39.229267 -53.340618 -34.358051 0.000016 -37.183017 0.000002 -60.887974 -23.366168 9.967457 -26.849305 -11.381159 -2.961872 -0.954122 23.854212 8.959058 -19.710464 -35.383617 6.311335 0.000001 0.000001 -0.000001 11.836599 26.326320 -27.209537 0.314063 1.894120 -18.827068 0.182136 1.450858 -14.309302 -0.000000 0.000004 -0.000004 2.664928 17.253869 -9.626729 0.493609 2.355586 -23.666763 0.631669 2.648049 -26.828655 -0.000002 -0.000002 -0.000000 1.523144 8.840884 -13.968839 0.120870 1.185217 -11.647268 0.059119 -0.830925 8.136325 -0.000002 0.000000 0.000008 3.470340 -0.158500 -1.102520 0.434269 2.215365 -22.178777 0.002874 0.183980 -1.795745 -0.000001 0.000001 -0.000001 2.232233 24.618196 5.546480 -75.976661 41.045790 66.739650 0.000026 38.082307 -0.000013 -17.670698 12.304862 -22.728178 9.463552 34.231884 -5.591944 -14.104445 -41.000447 -28.365846 -0.427484 -53.201672 -26.465255 0.000004 -0.000001 -0.000003 2.920675 -6.577067 67.416569 4.777077 -4.655631 91.477079 1.832748 -3.704430 52.634841 -0.000001 -0.000003 0.000001 2.995946 -6.607437 68.415655 5.116781 -4.634476 95.669736 1.281289 -3.210064 43.509780 0.000000 0.000000 -0.000004 4.253101 -7.031888 71.531752 4.700780 -4.656955 90.536924 1.504569 -3.429598 47.363926 0.000000 0.000001 -0.000003 6.205077 -13.443771 65.556668 2.617984 -4.187867 64.007957 1.817471 -3.692744 52.398022 0.000000 -0.000001 0.000000 -68.044674 0.487974 13.729198 104.469847 0.639487 -6.477494 -19.925998 -0.159164 2.071982 0.872233 -0.000007 0.000003 0.000001 0.000001 -0.000000 -67.840034 2.506775 -14.140132 107.145410 -4.076189 1.886089 -27.375019 -6.020929 -1.547482 -0.348420 0.000001 0.000001 0.000000 0.000001 0.000000 
-0.167384 120.667107 15.714569 -12.272556 -0.178400 2.716274 15.669928 -1.547415 0.965256 13.225626 -0.852520 0.638294 23.847904 -0.670148 0.853895 -10.502269 -0.429076 -1.564079 -21.919778 -0.106096 -5.192699 0.000001 0.000000 0.000000 3.120504 -17.735346 0.265979 -25.365873 -47.363383 -23.952990 0.000001 -48.634082 0.000005 -53.534551 -8.802448 8.591009 -26.800214 -11.378390 -3.024771 -1.031145 23.739869 8.987247 -20.015475 -35.911454 6.029380 0.000002 0.000001 -0.000002 11.743729 26.546300 -26.760710 0.301703 1.857488 -18.449473 0.179470 1.440445 -14.204280 0.000002 0.000002 -0.000002 2.533863 17.336378 -9.036213 0.479841 2.323913 -23.329109 0.631608 2.647941 -26.827457 -0.000002 0.000001 0.000005 1.486713 8.851113 -13.552425 0.116680 1.164614 -11.442044 0.065922 -0.877376 8.594472 0.000000 -0.000002 0.000001 3.515233 -0.196048 -0.727455 0.424668 2.191653 -21.928795 0.002363 0.166450 -1.624541 -0.000001 0.000003 0.000001 1.822857 25.579806 7.389963 -77.075837 43.808058 66.991219 -0.000007 28.702169 0.000008 -17.762440 15.445675 -21.167502 9.463563 34.231884 -5.591953 -14.104404 -41.000458 -28.365822 -0.427500 -53.201655 -26.465258 0.000004 -0.000000 -0.000002 2.920699 -6.577065 67.416569 4.777079 -4.655612 91.477079 1.832715 -3.704432 52.634821 -0.000001 -0.000003 -0.000001 2.995952 -6.607429 68.415649 5.116783 -4.634481 95.669743 1.281292 -3.210075 43.509774 -0.000000 0.000000 -0.000004 4.253112 -7.031884 71.531752 4.700782 -4.656943 90.536903 1.504581 -3.429606 47.363954 -0.000001 -0.000000 -0.000002 6.205069 -13.443781 65.556675 2.617977 -4.187900 64.007957 1.817471 -3.692758 52.398018 -0.000000 -0.000000 0.000002 -67.123240 0.405327 13.024180 104.270221 0.744173 -6.650030 -18.670734 -0.126904 1.805447 0.798070 0.000007 0.000001 -0.000000 -0.000000 -0.000000 -66.059793 3.475593 -15.519414 107.588197 -3.326388 2.211917 -27.976004 -4.945244 -0.387208 -0.021914 0.000003 0.000005 -0.000000 -0.000000 -0.000000 
0.010124 120.563721 16.125912 -13.313682 -0.036966 3.448690 13.857658 -0.135209 2.184260 12.750007 -0.465143 0.934508 23.110474 -0.274076 1.071767 -10.357424 -0.714042 -1.736197 -18.790774 -1.522355 -8.077032 -0.000000 0.000000 0.000000 3.138343 -15.305057 0.592870 -16.555395 -43.609812 -18.687961 -0.000004 -55.988273 -0.000013 -44.594189 -1.719777 12.465634 -27.338911 -11.413401 -2.332243 -0.179531 24.995702 8.660624 -16.957483 -30.030901 8.837451 0.000001 -0.000000 -0.000003 12.582066 24.133941 -31.634994 0.450845 2.255601 -22.603992 0.209683 1.554841 -15.359572 -0.000001 -0.000004 0.000000 3.859454 16.375534 -15.503061 0.641663 2.667690 -27.044132 0.632215 2.649149 -26.840673 0.000002 -0.000002 0.000001 1.866614 8.729381 -18.130858 0.167015 1.390249 -13.699368 0.011299 -0.364054 3.554918 0.000003 -0.000001 0.000004 3.043744 0.242684 -4.850755 0.536035 2.450036 -24.678928 0.011000 0.359234 -3.507726 -0.000000 0.000001 -0.000001 1.726751 25.756505 7.824467 -76.888560 45.944610 65.897139 -0.000006 19.241895 0.000017 -19.490974 18.611089 -20.224595 9.463555 34.231884 -5.591950 -14.104410 -41.000464 -28.365829 -0.427511 -53.201672 -26.465253 0.000001 0.000000 -0.000001 2.920686 -6.577069 67.416583 4.777092 -4.655618 91.477099 1.832726 -3.704435 52.634817 -0.000000 -0.000003 0.000003 2.995944 -6.607429 68.415635 5.116773 -4.634488 95.669743 1.281294 -3.210070 43.509770 0.000001 0.000000 -0.000004 4.253108 -7.031873 71.531752 4.700757 -4.656957 90.536903 1.504581 -3.429607 47.363913 -0.000000 -0.000000 0.000000 6.205072 -13.443790 65.556661 2.617998 -4.187884 64.007970 1.817450 -3.692755 52.398001 -0.000000 0.000001 -0.000001 -67.731386 -0.296119 12.374547 104.301012 0.883448 -7.013612 -14.239491 -0.105476 1.180918 0.292130 -0.000009 0.000003 -0.000001 0.000001 0.000000 -64.163268 4.928088 -17.919961 108.692598 -1.882360 2.838453 -29.393005 -3.380871 0.900670 0.532980 -0.000008 0.000003 -0.000000 -0.000001 -0.000000 
